<svg width="46" height="46" viewBox="0 0 46 46" fill="none" xmlns="http://www.w3.org/2000/svg">
<path d="M35.6667 8.83333H33.75V6.91667C33.75 6.40833 33.5481 5.92082 33.1886 5.56138C32.8292 5.20193 32.3417 5 31.8333 5H8.83333C8.325 5 7.83749 5.20193 7.47805 5.56138C7.1186 5.92082 6.91667 6.40833 6.91667 6.91667V24.1667C6.91667 26.2 7.7244 28.15 9.16218 29.5878C10.6 31.0256 12.55 31.8333 14.5833 31.8333H26.0833C29.6445 31.8333 32.6211 29.3819 33.4778 26.0833H35.6667C37.1917 26.0833 38.6542 25.4775 39.7325 24.3992C40.8109 23.3209 41.4167 21.8583 41.4167 20.3333V14.5833C41.4167 13.0583 40.8109 11.5958 39.7325 10.5175C38.6542 9.43914 37.1917 8.83333 35.6667 8.83333ZM37.5833 20.3333C37.5833 20.8417 37.3814 21.3292 37.022 21.6886C36.6625 22.0481 36.175 22.25 35.6667 22.25H33.75V12.6667H35.6667C36.175 12.6667 36.6625 12.8686 37.022 13.228C37.3814 13.5875 37.5833 14.075 37.5833 14.5833V20.3333ZM33.75 35.6667H5C5 38.8368 7.57983 41.4167 10.75 41.4167H31.8333C35.0035 41.4167 37.5833 38.8368 37.5833 35.6667H33.75Z" fill="#E97826"/>
</svg>
